HIERARCHY
ROOT Hips
{
	OFFSET	0.00	0.00	0.00
	CHANNELS 6 Xposition Yposition Zposition Zrotation Xrotation Yrotation
	JOINT LeftUpLeg
	{
		OFFSET	 0.126116	-0.014019	-0.065224
		CHANNELS 3 Zrotation Xrotation Yrotation
		JOINT LeftLeg
		{
			OFFSET	 0.000000	 0.000000	 0.569914
			CHANNELS 3 Zrotation Xrotation Yrotation
			JOINT LeftFoot
			{
				OFFSET	 0.000000	 0.000000	 0.544423
				CHANNELS 3 Zrotation Xrotation Yrotation
				JOINT LeftToeBase
				{
					OFFSET	 0.000000	 0.000000	 0.207117
					CHANNELS 3 Zrotation Xrotation Yrotation
					End Site
					{
						OFFSET	 0.000000	 0.000000	 0.207117
					}
				}
			}
		}
	}
	JOINT RightUpLeg
	{
		OFFSET	-0.124023	-0.008373	-0.065224
		CHANNELS 3 Zrotation Xrotation Yrotation
		JOINT RightLeg
		{
			OFFSET	 0.000000	 0.000000	 0.570047
			CHANNELS 3 Zrotation Xrotation Yrotation
			JOINT RightFoot
			{
				OFFSET	 0.000000	 0.000000	 0.544354
				CHANNELS 3 Zrotation Xrotation Yrotation
				JOINT RightToeBase
				{
					OFFSET	 0.000000	 0.000000	 0.207540
					CHANNELS 3 Zrotation Xrotation Yrotation
					End Site
					{
						OFFSET	 0.000000	 0.000000	 0.207540
					}
				}
			}
		}
	}
	JOINT Spine
	{
		OFFSET	 0.000184	-0.007763	 0.117403
		CHANNELS 3 Zrotation Xrotation Yrotation
		JOINT Spine1
		{
			OFFSET	 0.000000	 0.000000	 0.137269
			CHANNELS 3 Zrotation Xrotation Yrotation
			JOINT Spine2
			{
				OFFSET	 0.000000	 0.000000	 0.156879
				CHANNELS 3 Zrotation Xrotation Yrotation
				JOINT LeftShoulder
				{
					OFFSET	 0.080501	-0.002496	 0.160144
					CHANNELS 3 Zrotation Xrotation Yrotation
					JOINT LeftArm
					{
						OFFSET	 0.000000	 0.000000	 0.164363
						CHANNELS 3 Zrotation Xrotation Yrotation
						JOINT LeftForeArm
						{
							OFFSET	 0.000000	 0.000000	 0.364576
							CHANNELS 3 Zrotation Xrotation Yrotation
							JOINT LeftHand
							{
								OFFSET	 0.000000	 0.000000	 0.360812
								CHANNELS 3 Zrotation Xrotation Yrotation
								JOINT LeftHandIndex1
								{
									OFFSET	 0.000000	 0.000000	 0.086006
									CHANNELS 3 Zrotation Xrotation Yrotation
									JOINT LeftHandIndex2
									{
										OFFSET	 0.000000	 0.000000	 0.047236
										CHANNELS 3 Zrotation Xrotation Yrotation
										JOINT LeftHandIndex3
										{
											OFFSET	-0.004284	-0.000551	 0.038166
											CHANNELS 3 Zrotation Xrotation Yrotation
											End Site
											{
												OFFSET	-0.004284	-0.000551	 0.038166
											}
										}
									}
								}
							}
						}
					}
				}
				JOINT Neck
				{
					OFFSET	 0.000000	 0.000000	 0.176489
					CHANNELS 3 Zrotation Xrotation Yrotation
					JOINT Head
					{
						OFFSET	 0.000000	-0.001747	 0.077940
						CHANNELS 3 Zrotation Xrotation Yrotation
						End Site
						{
							OFFSET	 0.000000	-0.001747	 0.077940
						}
					}
				}
				JOINT RightShoulder
				{
					OFFSET	-0.080363	 0.000306	 0.159706
					CHANNELS 3 Zrotation Xrotation Yrotation
					JOINT RightArm
					{
						OFFSET	 0.000000	 0.000000	 0.164196
						CHANNELS 3 Zrotation Xrotation Yrotation
						JOINT RightForeArm
						{
							OFFSET	 0.000000	 0.000000	 0.365611
							CHANNELS 3 Zrotation Xrotation Yrotation
							JOINT RightHand
							{
								OFFSET	 0.000000	 0.000000	 0.360648
								CHANNELS 3 Zrotation Xrotation Yrotation
								JOINT RightHandIndex1
								{
									OFFSET	 0.000000	 0.000000	 0.069977
									CHANNELS 3 Zrotation Xrotation Yrotation
									JOINT RightHandIndex2
									{
										OFFSET	 0.000000	 0.000000	 0.052305
										CHANNELS 3 Zrotation Xrotation Yrotation
										JOINT RightHandIndex3
										{
											OFFSET	 0.009002	-0.000782	 0.042196
											CHANNELS 3 Zrotation Xrotation Yrotation
											End Site
											{
												OFFSET	 0.009002	-0.000782	 0.042196
											}
										}
									}
								}
							}
						}
					}
				}
			}
		}
	}
}
MOTION
Frames:    6
Frame Time: 0.03333334
 0.000149	 0.041469	 1.275600	-0.106610	 2.040606	 0.451609	-2.520091	-5.132104	 178.907000	 2.377440	-13.320680	 0.644222	-0.060389	 71.516090	-0.221664	-2.385833	 28.452750	 0.000004	 10.167940	-4.795500	-179.082000	-0.802915	-12.030690	 0.906971	 5.340603	 70.532550	 1.009421	 2.384659	 28.388700	-0.000001	-6.213136	 6.064425	 1.283794	-3.017670	-2.378988	-0.132519	 9.441653	 4.866446	-0.465393	-91.278870	 70.563640	-178.092200	-8.987586	 3.515041	-13.499760	 25.859400	-4.315368	-15.362520	-11.095510	-27.479630	-4.426468	-2.027600	 6.559038	 9.033609	-5.188889	 0.308190	 3.541030	-5.234859	 0.342567	 0.430617	 4.150584	 15.758830	-6.053598	 4.482224	-12.094010	 2.147081	 89.163890	 69.749270	 177.685200	 9.654227	 8.083302	 1.779372	-24.789580	-11.419600	 32.735820	 9.071827	-27.909270	 7.287569	 1.803333	 3.979147	-15.098590	 4.898592	 3.004813	-9.310344	 5.224449	 0.395017	 2.014677
-0.000338	 0.044894	 1.277687	-0.063712	 2.877498	 0.455536	-2.540723	-5.708921	 178.812800	 2.185735	-12.267100	 0.553267	-0.077216	 70.486210	-0.013169	-2.385833	 28.452750	 0.000004	 10.045410	-5.273608	-178.864500	-0.788621	-10.816440	 0.819297	 5.171979	 69.524410	 1.147170	 2.384659	 28.388700	-0.000001	-6.923115	 6.717664	 1.477395	-3.165792	-4.428516	-0.321683	 9.720444	 7.511481	-0.785434	-91.064420	 69.079930	-177.589600	-7.943882	 3.109454	-14.534290	 24.774550	-4.661345	-18.038500	-10.106210	-31.669250	-5.432547	-2.027600	 6.559038	 9.033609	-5.188889	 0.308190	 3.541030	-5.234859	 0.342567	 0.430617	 4.592266	 19.636370	-7.274904	 4.935394	-14.909640	 2.240645	 88.871260	 67.709890	 177.081400	 8.331048	 7.272774	 3.492211	-24.485030	-11.603180	 33.924900	 7.753510	-31.329290	 7.180420	 1.803333	 3.979147	-15.098590	 4.898592	 3.004813	-9.310344	 5.224449	 0.395017	 2.014677
-0.001083	 0.050266	 1.278987	 0.027879	 4.033087	 0.514321	-2.705998	-7.077158	 178.599200	 2.103002	-11.912060	 0.531499	-0.332314	 69.820660	 0.287470	-2.385833	 28.452750	 0.000004	 9.851677	-6.430083	-178.667100	-0.789261	-10.074720	 0.763612	 5.109003	 68.598160	 1.188366	 2.384659	 28.388700	-0.000001	-7.546725	 7.376147	 1.648724	-3.281439	-6.477901	-0.547990	 9.759337	 9.982088	-1.071993	-90.890970	 67.887410	-177.242100	-6.629729	 4.340137	-16.168930	 23.539310	-4.696065	-20.146460	-10.116390	-36.697070	-7.280479	-2.027600	 6.559038	 9.033609	-5.188889	 0.308190	 3.541030	-5.234859	 0.342567	 0.430617	 4.730846	 23.150600	-8.315444	 5.520404	-17.692840	 2.460078	 88.562550	 65.568920	 176.555100	 6.696979	 7.744489	 5.378214	-23.953400	-11.480160	 34.887730	 6.790510	-35.477360	 7.543464	 1.803333	 3.979147	-15.098590	 4.898592	 3.004813	-9.310344	 5.224449	 0.395017	 2.014677
-0.001807	 0.056214	 1.279814	 0.128561	 5.261010	 0.593675	-2.721021	-8.718458	 178.374500	 2.228182	-11.881670	 0.528420	-0.599350	 69.353320	 0.581466	-2.385833	 28.452760	 0.000004	 9.605680	-7.803907	-178.492800	-0.989117	-9.544922	 0.690523	 5.293875	 67.804860	 1.173379	 2.384659	 28.388700	-0.000001	-8.014763	 7.923536	 1.745894	-3.370599	-8.191378	-0.696495	 9.640705	 11.924510	-1.339833	-90.827300	 66.729050	-177.244000	-5.136355	 5.806810	-18.124780	 21.955300	-4.205052	-20.925300	-11.460770	-40.974220	-9.711414	-2.027600	 6.559038	 9.033609	-5.188889	 0.308190	 3.541030	-5.234859	 0.342567	 0.430617	 4.581246	 25.291510	-8.766220	 5.918986	-19.523410	 2.548544	 88.409660	 63.642920	 176.461400	 4.828785	 8.527121	 7.055560	-23.216560	-10.971170	 35.324000	 6.470066	-39.011820	 8.522845	 1.803333	 3.979147	-15.098590	 4.898592	 3.004813	-9.310344	 5.224449	 0.395017	 2.014677
-0.002595	 0.064434	 1.280480	 0.299106	 6.972845	 0.676234	-3.067266	-11.179200	 178.051000	 2.107785	-12.210180	 0.534222	-0.871131	 68.867440	 0.916197	-2.385832	 28.452790	-0.000001	 9.318352	-9.947156	-178.242100	-1.296564	-9.289441	 0.609602	 5.808599	 67.016220	 0.991266	 2.384659	 28.388700	-0.000001	-8.498258	 8.496180	 1.796749	-3.435811	-10.021050	-0.798919	 9.361672	 13.871710	-1.625178	-90.978010	 65.379170	-177.840600	-3.313481	 7.310790	-19.780730	 19.680190	-3.461688	-22.018500	-14.515410	-45.357810	-13.432220	-2.027600	 6.559038	 9.033609	-5.188889	 0.308190	 3.541030	-5.234859	 0.342567	 0.430617	 4.147727	 26.653320	-8.818260	 6.176674	-20.899520	 2.511632	 88.508820	 61.660920	 176.963800	 2.216473	 9.389337	 8.354379	-22.034880	-10.243030	 36.146340	 6.753145	-42.798380	 10.396170	 1.803333	 3.979147	-15.098590	 4.898592	 3.004813	-9.310344	 5.224449	 0.395017	 2.014677
-0.002971	 0.074779	 1.280417	 0.619875	 9.073156	 0.663012	-3.527263	-14.464350	 177.779600	 2.009977	-13.045080	 0.548019	-1.022304	 68.252550	 1.192252	-2.385833	 28.452760	 0.000004	 8.815598	-13.086920	-177.896600	-1.578395	-9.960362	 0.617903	 6.457936	 66.514850	 0.465828	 2.384659	 28.388700	-0.000001	-9.002669	 8.914558	 1.794086	-3.432580	-11.820250	-0.863583	 8.966216	 15.425210	-1.754192	-91.627320	 64.756390	-179.608800	-1.442621	 9.412129	-19.184110	 17.929590	-3.140935	-24.953430	-18.330610	-48.809110	-17.752030	-2.027600	 6.559038	 9.033609	-5.188889	 0.308190	 3.541030	-5.234859	 0.342567	 0.430617	 3.632555	 27.006510	-8.728399	 6.274209	-21.664830	 2.497880	 89.111080	 60.848470	 178.444400	-0.834755	 11.388500	 8.205465	-20.946080	-9.780997	 37.607690	 7.494357	-46.331920	 12.641540	 1.803333	 3.979147	-15.098590	 4.898592	 3.004813	-9.310344	 5.224449	 0.395017	 2.014677
